<svg width="186" height="72" viewBox="0 0 186 72" fill="none" xmlns="http://www.w3.org/2000/svg">
<path d="M0 61.0481V60.4142C1.54467 60.4142 2.79229 59.9387 3.72306 59.0075C4.67362 58.0566 5.1291 56.8282 5.1291 55.2829V18.6115C5.1291 17.0662 4.65382 15.818 3.72306 14.8869C2.77249 13.9359 1.54467 13.4803 0 13.4803V12.8463H21.4868C24.5761 12.8463 27.2694 13.3812 29.5666 14.4312C31.8638 15.4812 33.6461 16.9473 34.9136 18.8096C36.181 20.6719 36.8147 22.8512 36.8147 25.3475C36.8147 27.8437 35.8443 31.1523 33.9234 33.391C32.0024 35.6297 29.3686 36.9769 26.0812 37.4524C26.8139 37.6703 27.6853 38.3043 28.6953 39.3741C29.7052 40.444 30.6756 41.7714 31.6262 43.3563L39.7258 57.2641C40.3199 58.2547 41.0526 59.0273 41.8844 59.6217C42.7161 60.1962 43.6469 60.4934 44.6767 60.4934V61.1274H31.3687C30.7746 60.1368 30.1409 59.067 29.4676 57.9179C28.7943 56.7688 28.2002 55.6792 27.6259 54.7084L21.3284 43.1185C20.556 41.7119 19.9025 40.6025 19.3678 39.81C18.8331 39.0175 18.2984 38.4628 17.7637 38.1656C17.229 37.8685 16.5557 37.71 15.7438 37.71H15.1101V55.3424C15.1101 56.8877 15.5854 58.1358 16.5161 59.067C17.4667 60.0179 18.6945 60.4736 20.2392 60.4736H20.358V61.1076H0.0396064L0 61.0481ZM15.0507 36.7788H18.338C21.1303 36.7788 23.3483 35.709 24.992 33.5693C26.6357 31.4297 27.4674 28.6362 27.4674 25.2088C27.4674 21.7814 26.6753 18.9285 25.091 16.8086C23.5067 14.6888 21.4076 13.6189 18.7935 13.6189H15.0705V36.7788H15.0507Z" fill="#1A1A1A"/>
<path d="M114.234 61.9397C113.125 61.9397 112.214 61.9001 111.501 61.8208C110.788 61.7416 110.095 61.6227 109.402 61.5038C108.709 61.3651 107.877 61.2661 106.887 61.1868C105.897 61.1076 104.55 61.068 102.827 61.068L100.57 44.3271H101.342C101.976 49.597 103.461 53.6782 105.738 56.5311C108.036 59.384 110.986 60.8104 114.59 60.8104C118.195 60.8104 119.423 60.0576 121.086 58.5519C122.75 57.0462 123.601 55.1046 123.601 52.6876C123.601 50.2706 123.423 50.6668 123.047 49.7357C122.69 48.7847 122.076 47.7743 121.205 46.7045C120.353 45.6347 119.205 44.4658 117.799 43.1978C116.393 41.9299 114.63 40.5034 112.531 38.9185L109.897 36.9175C106.689 34.4807 104.451 32.2816 103.203 30.3598C101.956 28.4381 101.342 26.3183 101.342 24.0597C101.342 20.2757 102.728 17.3237 105.481 15.1445C108.253 12.985 111.897 11.8953 116.452 11.8953C121.007 11.8953 118.472 11.935 119.185 12.0142C119.898 12.0935 120.571 12.2123 121.244 12.3312C121.918 12.4501 122.69 12.5689 123.601 12.6482C124.492 12.7274 125.661 12.7671 127.067 12.7671L127.7 25.7635H127.067C126.473 21.7814 125.185 18.6115 123.205 16.3133C121.225 13.9954 118.848 12.8463 116.056 12.8463C113.264 12.8463 112.511 13.4208 111.323 14.5897C110.135 15.7388 109.56 17.2841 109.56 19.2257C109.56 21.1672 110.115 22.4946 111.204 24.0201C112.293 25.5456 114.194 27.3088 116.888 29.3296L119.66 31.39C122.492 33.4505 124.73 35.3524 126.374 37.076C128.017 38.8194 129.205 40.5034 129.938 42.128C130.671 43.7525 131.027 45.496 131.027 47.3385C131.027 50.1715 130.314 52.6876 128.908 54.8669C127.502 57.0462 125.522 58.7698 123.027 59.9783C120.512 61.2066 117.561 61.8604 114.175 61.9397H114.234Z" fill="#1A1A1A"/>
<path d="M147.048 61.9397C145.939 61.9397 145.028 61.9001 144.316 61.8208C143.603 61.7416 142.91 61.6227 142.216 61.5038C141.523 61.3651 140.692 61.2661 139.701 61.1868C138.711 61.1076 137.365 61.068 135.642 61.068L133.384 44.3271H134.156C134.79 49.597 136.275 53.6782 138.553 56.5311C140.85 59.384 143.801 60.8104 147.405 60.8104C151.009 60.8104 152.237 60.0576 153.9 58.5519C155.564 57.0462 156.415 55.1046 156.415 52.6876C156.415 50.2706 156.237 50.6668 155.861 49.7357C155.505 48.7847 154.891 47.7743 154.019 46.7045C153.168 45.6347 152.019 44.4658 150.613 43.1978C149.207 41.9299 147.445 40.5034 145.345 38.9185L142.711 36.9175C139.503 34.4807 137.266 32.2816 136.018 30.3598C134.77 28.4381 134.156 26.3183 134.156 24.0597C134.156 20.2757 135.543 17.3237 138.295 15.1445C141.068 12.985 144.712 11.8953 149.266 11.8953C153.821 11.8953 151.286 11.935 151.999 12.0142C152.712 12.0935 153.386 12.2123 154.059 12.3312C154.732 12.4501 155.505 12.5689 156.415 12.6482C157.307 12.7274 158.475 12.7671 159.881 12.7671L160.515 25.7635H159.881C159.287 21.7814 158 18.6115 156.019 16.3133C154.039 13.9954 151.663 12.8463 148.87 12.8463C146.078 12.8463 145.326 13.4208 144.137 14.5897C142.949 15.7388 142.375 17.2841 142.375 19.2257C142.375 21.1672 142.929 22.4946 144.019 24.0201C145.108 25.5456 147.009 27.3088 149.702 29.3296L152.475 31.39C155.307 33.4505 157.544 35.3524 159.188 37.076C160.832 38.8194 162.02 40.5034 162.753 42.128C163.485 43.7525 163.842 45.496 163.842 47.3385C163.842 50.1715 163.129 52.6876 161.723 54.8669C160.317 57.0462 158.336 58.7698 155.841 59.9783C153.326 61.2066 150.375 61.8604 146.989 61.9397H147.048Z" fill="#1A1A1A"/>
<path d="M165.603 61.0481V60.4142H165.662C167.207 60.4142 168.454 59.9387 169.385 59.0075C170.316 58.0764 170.791 56.8282 170.791 55.2829V18.6115C170.791 17.0662 170.316 15.818 169.385 14.8869C168.434 13.9359 167.207 13.4803 165.662 13.4803H165.603V12.8463H186V13.4803H185.941C184.396 13.4803 183.148 13.9557 182.218 14.8869C181.267 15.8379 180.812 17.0662 180.812 18.6115V55.2829C180.812 56.8282 181.287 58.0764 182.218 59.0075C183.168 59.9585 184.396 60.4142 185.941 60.4142H186V61.0481H165.603Z" fill="#1A1A1A"/>
<path d="M102.505 35.141C101.077 34.8413 100.912 35.4951 99.4833 35.1955C98.0547 34.8958 98.1371 34.4327 96.7086 34.1058C95.2801 33.8062 95.3625 33.3976 93.9065 33.0979C92.4779 32.7983 92.3955 33.1524 90.9395 32.8527C89.511 32.5531 88.0824 33.7789 87.7802 32.3624C87.5055 30.9186 88.989 31.1366 90.2252 30.2921C91.434 29.4749 91.4889 29.5293 92.6977 28.7121C93.9065 27.8949 94.0163 28.0311 95.2251 27.1866C96.4339 26.3694 96.5438 26.5056 97.7525 25.6611C98.9613 24.8439 99.0712 25.0073 100.307 24.1628C101.516 23.3456 102.56 23.9449 102.011 22.5829C101.434 21.2208 101.241 22.8825 99.7854 23.1549C98.3294 23.4273 98.247 22.937 96.791 23.2094C95.335 23.4818 95.2801 23.2094 93.8515 23.4546C92.3955 23.727 92.4504 23.9449 90.9944 24.1901C89.5384 24.4625 89.4835 24.1901 88.0549 24.4353C86.5989 24.7077 86.2967 26.5601 85.4726 25.3614C84.6484 24.1356 85.4726 23.9177 86.2693 22.6918C87.066 21.466 88.1648 22.147 88.9615 20.9212C89.7582 19.6953 89.3461 19.4229 90.1428 18.197C90.9395 16.9712 90.445 16.6443 91.2417 15.4185C92.0384 14.1926 91.8735 14.0836 92.6702 12.8578C93.4669 11.6319 96.1317 11.6047 95.0878 10.5695C94.0438 9.53438 93.2471 11.0054 92.0109 11.7954C90.7747 12.5854 90.9395 12.8578 89.7033 13.6478C88.467 14.4378 89.0439 15.3367 87.8077 16.1267C86.5715 16.9167 86.5715 16.9167 85.3352 17.7067C84.099 18.4967 84.044 18.4422 82.8078 19.2322C81.5716 20.0222 81.1045 21.357 79.8683 20.5398C78.6321 19.7225 80.5551 18.9326 80.8298 17.4888C81.1045 16.045 81.4342 16.1267 81.7089 14.6829C81.9837 13.2392 81.187 13.103 81.4342 11.6592C81.7089 10.2154 81.8463 10.2426 82.121 8.82611C82.3957 7.38233 82.0111 7.32785 82.2584 5.88407C82.5331 4.4403 84.7858 3.07825 83.4122 2.53343C82.0386 1.9886 81.7639 3.89548 80.9122 5.09408C80.0881 6.29269 80.3079 6.45614 79.4837 7.65474C78.6595 8.85335 79.209 9.23473 78.3573 10.4333C77.5332 11.6319 77.8903 11.8771 77.0387 13.0757C76.2145 14.2743 75.8299 14.0292 74.9783 15.2278C74.1542 16.4264 74.5662 17.7339 73.1377 17.4343C71.6817 17.1346 72.4234 16.154 72.1212 14.7374C71.819 13.3209 72.1762 13.2392 71.874 11.7954C71.5718 10.3789 71.5443 10.3789 71.2147 8.93508C70.9125 7.51854 71.3245 7.40957 71.0224 5.99304C70.7202 4.5765 70.9125 4.52202 70.6103 3.10548C70.3081 1.68895 70.9125 0 69.429 0C67.9455 0 69.374 1.36206 69.429 3.21445C69.4839 4.68547 68.1103 4.5765 67.8081 6.02028C67.5059 7.43682 67.6433 7.4913 67.3411 8.90784C67.0389 10.3244 67.1763 10.3516 66.8466 11.7954C66.5444 13.2119 67.2312 13.3754 66.929 14.7919C66.6269 16.2084 67.1763 17.3798 65.7203 17.6522C64.2643 17.9246 64.5115 16.5626 63.6599 15.364C62.8357 14.1654 62.7808 14.1926 61.9566 12.9668C61.1325 11.7681 61.2973 11.6592 60.4457 10.4333C59.6215 9.23473 59.2644 9.45266 58.4402 8.25405C57.6161 7.05544 58.4402 6.48338 57.6161 5.25753C56.7919 4.05893 56.9842 2.4517 55.6381 2.99652C54.2645 3.56858 56.2425 4.41305 56.5172 5.85683C56.7919 7.30061 55.9952 7.43682 56.2425 8.88059C56.5172 10.3244 57.0392 10.2154 57.2864 11.6592C57.5611 13.103 57.2864 13.1574 57.5611 14.574C57.8358 16.0178 57.726 16.0178 58.0007 17.4615C58.2754 18.9053 60.3632 19.9132 59.127 20.7305C57.8908 21.5477 57.7534 19.2322 56.5172 18.4422C55.2809 17.6522 55.1436 17.8429 53.9073 17.0529C52.6711 16.2629 52.3415 16.7533 51.1052 15.9633C49.869 15.1733 50.4459 14.2743 49.2097 13.4843C47.9734 12.6943 47.9459 12.7216 46.7097 11.9316C45.4735 11.1416 45.3361 10.052 44.2922 11.0871C43.2482 12.1223 44.5944 12.095 45.3911 13.3209C46.1877 14.5467 46.2152 14.5467 47.0119 15.7726C47.8086 16.9984 48.2756 16.6988 49.0723 17.9246C49.869 19.1505 49.9514 19.096 50.7481 20.3218C51.5448 21.5477 51.325 21.6839 52.1491 22.9097C52.9458 24.1356 54.3194 24.2173 53.4953 25.4159C52.6711 26.6418 52.0118 25.8518 50.5558 25.5794C49.0998 25.307 49.1272 25.1708 47.6712 24.9256C46.2152 24.6532 46.2702 24.3263 44.8416 24.0811C43.3856 23.8087 43.4955 23.2094 42.067 22.9642C40.6109 22.6918 40.5835 22.828 39.1549 22.5829C37.6989 22.3104 37.2868 21.2208 36.7374 22.5829C36.188 23.9449 37.4517 23.1549 38.6604 23.9994C39.8692 24.8439 39.5121 25.3614 40.7208 26.2059C41.9296 27.0232 42.6439 26.0152 43.8526 26.8325C45.0614 27.6497 45.0064 27.7314 46.2152 28.5759C47.424 29.3931 47.0119 29.9924 48.2481 30.8097C49.4569 31.6269 50.9953 30.9186 50.6931 32.3352C50.3909 33.7789 49.2371 32.3352 47.8086 32.6348C46.38 32.9345 46.5174 33.5882 45.0614 33.8879C43.6329 34.1875 43.6329 34.2693 42.2043 34.5689C40.7758 34.8686 40.8032 35.0593 39.3747 35.3589C37.9462 35.6586 37.6714 34.3782 36.2154 34.7051C34.7869 35.0048 33.5232 34.5417 33.5232 35.9855C33.5232 37.4565 34.8968 36.503 36.3253 36.8027C37.7539 37.1024 37.8088 36.9389 39.2373 37.2386C40.6659 37.5382 40.7208 37.402 42.1494 37.7017C43.5779 38.0013 43.6878 37.511 45.1438 37.8106C46.5723 38.1103 46.435 38.7368 47.891 39.0637C49.3195 39.3634 50.6382 38.192 50.9129 39.6085C51.1876 41.0523 49.347 40.1534 48.1382 40.9706C46.9295 41.7878 47.2317 42.2509 46.0229 43.0681C44.8141 43.8854 44.8416 43.9671 43.6329 44.7843C42.4241 45.6016 42.2867 45.4109 41.0505 46.2281C39.8417 47.0453 39.9791 47.2633 38.7703 48.1077C37.5616 48.925 35.0891 48.4346 35.666 49.7967C36.2429 51.1587 37.589 48.9522 39.045 48.6798C40.5011 48.4074 40.6659 49.3064 42.1219 49.0612C43.5779 48.7888 43.3856 47.8081 44.8416 47.5357C46.2976 47.2633 46.4075 47.9171 47.8635 47.6719C49.3195 47.3995 49.2371 47.0181 50.6931 46.7457C52.1492 46.4733 52.6711 45.2747 53.4678 46.4733C54.292 47.6991 52.4788 47.3995 51.6821 48.6253C50.8854 49.8512 51.0777 49.9874 50.2811 51.2132C49.4844 52.4391 49.814 52.657 49.0174 53.8829C48.2207 55.1087 47.9734 54.9453 47.1767 56.1711C46.38 57.3969 46.1328 57.2335 45.3361 58.4594C44.5394 59.6852 42.6164 60.3935 43.6603 61.4014C44.7043 62.4366 45.2262 60.23 46.4625 59.44C47.6987 58.65 48.0009 59.1131 49.2371 58.3232C50.4734 57.5332 49.814 56.498 51.0503 55.708C52.2865 54.918 52.3415 54.9997 53.5777 54.2098C54.8139 53.4198 55.3084 54.1553 56.5447 53.3653C57.7809 52.5753 57.3688 51.1315 58.605 51.9487C59.8413 52.766 57.9732 52.8749 57.726 54.3187C57.4512 55.7625 58.1106 55.8715 57.8633 57.3152C57.5886 58.759 58.2479 58.868 57.9732 60.3117C57.6985 61.7555 56.5447 61.5376 56.2974 62.9814C56.0227 64.4251 57.149 64.6158 56.8743 66.0596C56.5996 67.5034 54.5117 67.7758 55.8853 68.3479C57.2589 68.8927 56.9293 67.8848 57.7534 66.6862C58.5776 65.4876 58.3578 65.3241 59.182 64.1255C60.0061 62.9269 59.9786 62.8997 60.8303 61.701C61.6544 60.5024 61.4621 60.3662 62.3138 59.1676C63.1379 57.969 63.1104 57.9418 63.9346 56.7432C64.7588 55.5446 64.3467 53.8556 65.7752 54.1553C67.2312 54.4549 65.5554 55.9532 65.8576 57.3969C66.1598 58.8135 66.7917 58.7045 67.0939 60.1211C67.3961 61.5376 66.7367 61.701 67.0389 63.1176C67.3411 64.5341 67.4785 64.5069 67.7807 65.9506C68.0829 67.3672 68.8246 67.231 69.1268 68.6475C69.429 70.0641 67.9455 71.3989 69.4015 71.3716C70.885 71.3716 70.3905 70.282 70.6927 68.8382C70.9949 67.4217 70.0059 67.2037 70.3081 65.76C70.6103 64.3434 70.8575 64.3707 71.1597 62.9541C71.4619 61.5376 71.2147 61.4831 71.5168 60.0393C71.819 58.6228 71.9839 58.6501 72.2861 57.2063C72.5883 55.7897 71.5718 54.1825 73.0003 53.9101C74.4563 53.6377 73.8245 55.6808 74.6486 56.8794C75.4728 58.078 75.8574 57.8328 76.6816 59.0314C77.5057 60.23 77.0937 60.5297 77.9178 61.7283C78.742 62.9269 78.6046 63.0359 79.4288 64.2345C80.2529 65.4331 80.665 65.1607 81.5166 66.3593C82.3408 67.5579 81.5166 68.811 82.8628 68.2389C84.2363 67.6669 83.0276 67.3399 82.7529 65.8962C82.4781 64.4524 82.5056 64.4524 82.2309 63.0086C81.9562 61.5648 81.4892 61.6466 81.2419 60.23C80.9672 58.7862 80.9947 58.7863 80.7199 57.3425C80.4452 55.8987 80.0606 55.9804 79.8134 54.5366C79.5386 53.0929 78.4672 52.0305 79.7035 51.2132C80.9397 50.396 81.2969 52.1394 82.5331 52.9294C83.7693 53.7194 83.6594 53.8829 84.8957 54.7001C86.1319 55.4901 85.8297 55.9532 87.066 56.7432C88.3022 57.5332 88.6593 56.9883 89.8956 57.7783C91.1318 58.5683 90.912 58.8952 92.1483 59.6852C93.3845 60.4752 93.6867 62.0824 94.7306 61.0473C95.7745 60.0121 93.7691 59.9576 92.9724 58.7318C92.1757 57.5059 92.2307 57.4514 91.434 56.2256C90.6373 54.9997 90.4999 55.0815 89.7033 53.8556C88.9066 52.6298 89.4285 52.3029 88.6319 51.077C87.8352 49.8512 87.7802 49.8784 86.9835 48.6526C86.1869 47.4267 83.9067 47.2633 84.7308 46.0647C85.555 44.8388 86.5715 46.9091 88 47.1543C89.4285 47.3995 89.456 47.4267 90.8845 47.6991C92.3406 47.9715 92.3406 47.9988 93.7691 48.2439C95.2251 48.5164 95.3899 47.5902 96.846 47.8353C98.302 48.1077 98.1371 48.9795 99.5657 49.2519C101.022 49.5243 101.626 50.6956 102.203 49.3608C102.752 47.9988 101.241 48.7615 100.033 47.9171C98.8239 47.0726 98.9063 46.9636 97.6701 46.1464C96.4613 45.3292 96.8185 44.7843 95.6097 43.9671C94.401 43.1499 94.3735 43.1771 93.1647 42.3599C91.956 41.5427 91.5988 42.033 90.3901 41.2158C89.1813 40.3985 87.4231 40.9161 87.6978 39.4996C88 38.0558 89.3186 38.873 90.7747 38.5461C92.2032 38.2465 92.2581 38.4099 93.6867 38.083C95.1152 37.7834 95.0328 37.3475 96.4888 37.0479C97.9174 36.7482 98.1646 37.7834 99.5932 37.4565C101.022 37.1568 101.104 37.4292 102.533 37.1024C103.961 36.8027 104.895 37.293 104.895 35.8493C104.895 34.3782 103.879 35.3317 102.45 35.032L102.505 35.141ZM82.6704 38.5734C82.5056 39.4451 82.4781 40.3713 82.1485 41.1885C81.8188 42.0057 81.2969 42.7685 80.8024 43.504C80.3079 44.2395 79.731 44.9478 79.1266 45.5743C78.4947 46.2009 77.6431 46.555 76.9013 47.0453C76.1596 47.5357 75.4453 48.026 74.6212 48.3802C73.8245 48.7071 72.9729 49.0339 72.0938 49.1974C71.2421 49.3608 70.363 49.2246 69.4565 49.2246C68.5499 49.2246 67.6158 49.5788 66.7642 49.4153C65.8851 49.2519 65.0609 48.7615 64.2643 48.4346C63.4401 48.1077 62.5885 47.7536 61.8742 47.2633C61.1325 46.7729 60.5556 46.0919 59.9237 45.4654C59.2919 44.8388 58.6051 44.2668 58.1106 43.5312C57.6161 42.7957 57.2589 41.9785 56.9293 41.1613C56.5996 40.3713 56.3798 39.4996 56.215 38.6279C56.0502 37.7834 55.9677 36.9117 55.9677 36.0127C55.9677 35.1138 56.1051 34.242 56.2699 33.3976C56.4348 32.5258 56.4897 31.5997 56.8194 30.8097C57.149 29.9924 57.8084 29.3114 58.2754 28.6031C58.7699 27.8676 59.4017 27.2683 60.0061 26.6418C60.638 26.0152 61.2149 25.3615 61.9566 24.8711C62.6984 24.3808 63.3852 23.7815 64.2093 23.4273C65.006 23.1004 66.462 23.3728 67.3411 23.2094C68.1928 23.046 68.5499 22.4739 69.4565 22.4739C70.363 22.4739 71.1872 22.8825 72.0663 23.0732C72.9454 23.2366 73.9069 23.1549 74.7036 23.4818C75.5277 23.8087 76.2695 24.3263 77.0112 24.8166C77.753 25.307 78.4947 25.8245 79.0991 26.4511C79.731 27.0776 80.0881 27.9221 80.5826 28.6576C81.0771 29.3931 81.4342 30.1559 81.7913 30.9731C82.121 31.7631 82.3683 32.5803 82.5331 33.452C82.6979 34.2965 83.0551 35.141 83.0551 36.04C83.0551 36.9389 82.8628 37.8106 82.6979 38.6551L82.6704 38.5734Z" fill="#1A1A1A"/>
</svg>
