<svg width="294" height="297" viewBox="0 0 294 297" fill="none" xmlns="http://www.w3.org/2000/svg">
<path d="M284.153 146.003C278.268 144.758 277.589 147.474 271.705 146.229C265.82 144.984 266.16 143.06 260.275 141.702C254.391 140.457 254.73 138.759 248.733 137.514C242.848 136.269 242.509 137.74 236.511 136.495C230.626 135.25 224.742 140.344 223.497 134.458C222.366 128.46 228.476 129.365 233.569 125.857C238.548 122.461 238.774 122.687 243.753 119.292C248.733 115.897 249.185 116.463 254.164 112.954C259.144 109.559 259.596 110.124 264.575 106.616C269.555 103.22 270.007 103.9 275.1 100.391C280.079 96.9955 284.379 99.4855 282.116 93.8265C279.739 88.1675 278.947 95.0715 272.949 96.2033C266.952 97.3351 266.612 95.2978 260.615 96.4296C254.617 97.5614 254.391 96.4296 248.506 97.4483C242.509 98.5801 242.735 99.4855 236.737 100.504C230.74 101.636 230.513 100.504 224.629 101.523C218.631 102.655 217.386 110.351 213.992 105.371C210.597 100.278 213.992 99.3723 217.273 94.2792C220.555 89.1861 225.081 92.0156 228.363 86.9225C231.645 81.8294 229.948 80.6976 233.229 75.6045C236.511 70.5114 234.474 69.1532 237.756 64.0601C241.038 58.9669 240.359 58.5142 243.64 53.4211C246.922 48.328 257.899 48.2148 253.599 43.914C249.298 39.6131 246.017 45.7249 240.924 49.0071C235.832 52.2893 236.511 53.4211 231.419 56.7033C226.326 59.9856 228.703 63.7205 223.61 67.0028C218.518 70.285 218.518 70.285 213.426 73.5672C208.333 76.8494 208.107 76.6231 203.015 79.9053C197.922 83.1875 195.999 88.7334 190.906 85.338C185.814 81.9425 193.735 78.6603 194.867 72.6618C195.999 66.6632 197.357 67.0027 198.488 61.0042C199.62 55.0056 196.338 54.4398 197.357 48.4412C198.488 42.4426 199.054 42.5558 200.186 36.6704C201.317 30.6719 199.733 30.4455 200.751 24.447C201.883 18.4484 211.162 12.7894 205.504 10.5258C199.846 8.26218 198.714 16.1848 195.206 21.1647C191.812 26.1447 192.717 26.8237 189.322 31.8037C185.927 36.7836 188.19 38.3681 184.682 43.3481C181.287 48.328 182.758 49.3466 179.25 54.3266C175.856 59.3065 174.271 58.2879 170.763 63.2678C167.368 68.2477 169.066 73.6804 163.181 72.4354C157.184 71.1904 160.239 67.1159 158.994 61.2306C157.749 55.3452 159.221 55.0057 157.976 49.0071C156.731 43.1217 156.618 43.1217 155.26 37.1232C154.015 31.2378 155.712 30.785 154.468 24.8997C153.223 19.0143 154.015 18.7879 152.77 12.9025C151.525 7.01717 154.015 0 147.904 0C141.793 0 147.678 5.65904 147.904 13.3553C148.131 19.467 142.472 19.0143 141.228 25.0129C139.983 30.8982 140.549 31.1246 139.304 37.01C138.059 42.8954 138.625 43.0085 137.267 49.0071C136.022 54.8925 138.851 55.5716 137.606 61.4569C136.362 67.3423 138.625 72.2091 132.627 73.3409C126.63 74.4727 127.648 68.8136 124.14 63.8337C120.745 58.8538 120.519 58.967 117.124 53.8738C113.729 48.8939 114.408 48.4412 110.9 43.3481C107.505 38.3681 106.034 39.2736 102.639 34.2937C99.2441 29.3137 102.639 26.9369 99.2441 21.8438C95.8492 16.8639 96.6413 10.1862 91.0963 12.4498C85.4382 14.8266 93.5859 18.3352 94.7175 24.3338C95.8492 30.3323 92.5674 30.8982 93.5859 36.8968C94.7175 42.8953 96.8677 42.4426 97.8861 48.4412C99.0178 54.4398 97.8861 54.6661 99.0178 60.5515C100.149 66.55 99.6967 66.55 100.828 72.5486C101.96 78.5471 110.56 82.7348 105.468 86.1302C100.376 89.5256 99.8099 79.9053 94.7175 76.6231C89.6252 73.3409 89.0594 74.1331 83.967 70.8509C78.8747 67.5687 77.5168 69.6059 72.4244 66.3237C67.3321 63.0414 69.7085 59.3065 64.6162 56.0243C59.5238 52.742 59.4107 52.8552 54.3183 49.573C49.226 46.2908 48.6601 41.7636 44.3599 46.0644C40.0597 50.3653 45.6047 50.2521 48.8865 55.3452C52.1682 60.4383 52.2814 60.4383 55.5631 65.5314C58.8448 70.6245 60.7686 69.3796 64.0503 74.4727C67.3321 79.5658 67.6715 79.3394 70.9533 84.4325C74.235 89.5256 73.3297 90.0915 76.7246 95.1847C80.0063 100.278 85.6645 100.617 82.2696 105.597C78.8747 110.69 76.1588 107.408 70.1612 106.276C64.1635 105.145 64.2767 104.579 58.279 103.56C52.2814 102.428 52.5077 101.07 46.6232 100.051C40.6255 98.9196 41.0782 96.4296 35.1937 95.411C29.1961 94.2792 29.0829 94.8451 23.1984 93.8265C17.2008 92.6947 15.5033 88.1675 13.2401 93.8265C10.9768 99.4855 16.1823 96.2033 21.1615 99.7119C26.1407 103.22 24.6695 105.371 29.6487 108.879C34.6279 112.275 37.5702 108.087 42.5494 111.483C47.5285 114.878 47.3022 115.218 52.2814 118.726C57.2605 122.122 55.5631 124.612 60.6555 128.007C65.6346 131.402 71.9718 128.46 70.727 134.345C69.4822 140.344 64.7293 134.345 58.8448 135.59C52.9604 136.835 53.5262 139.551 47.5285 140.796C41.644 142.041 41.644 142.381 35.7596 143.626C29.8751 144.871 29.9882 145.663 24.1037 146.908C18.2193 148.153 17.0876 142.834 11.09 144.192C5.20549 145.437 0 143.513 0 149.511C0 155.623 5.65814 151.662 11.5426 152.907C17.4271 154.152 17.6534 153.473 23.5379 154.718C29.4224 155.962 29.6487 155.397 35.5332 156.642C41.4177 157.887 41.8704 155.849 47.868 157.094C53.7525 158.339 53.1867 160.942 59.1843 162.301C65.0688 163.546 70.5006 158.679 71.6323 164.564C72.7639 170.563 65.182 166.828 60.2028 170.223C55.2236 173.619 56.4684 175.543 51.4892 178.938C46.5101 182.333 46.6232 182.673 41.644 186.068C36.6648 189.464 36.099 188.672 31.0067 192.067C26.0275 195.462 26.5933 196.368 21.6142 199.876C16.635 203.272 6.45029 201.235 8.82671 206.894C11.2031 212.553 16.7482 203.385 22.7458 202.253C28.7434 201.121 29.4224 204.856 35.4201 203.838C41.4177 202.706 40.6255 198.631 46.6232 197.5C52.6208 196.368 53.0735 199.084 59.0711 198.066C65.0688 196.934 64.7293 195.349 70.727 194.217C76.7246 193.086 78.8747 188.106 82.1565 193.086C85.5514 198.179 78.0826 196.934 74.8008 202.027C71.5191 207.12 72.3112 207.686 69.0295 212.779C65.7478 217.872 67.1057 218.778 63.824 223.871C60.5423 228.964 59.5238 228.285 56.2421 233.378C52.9603 238.471 51.9419 237.792 48.6602 242.885C45.3784 247.978 37.457 250.921 41.7572 255.108C46.0574 259.409 48.2075 250.242 53.2998 246.959C58.3922 243.677 59.637 245.601 64.7293 242.319C69.8216 239.037 67.1057 234.736 72.1981 231.454C77.2904 228.172 77.5168 228.511 82.6091 225.229C87.7014 221.947 89.7384 225.002 94.8307 221.72C99.923 218.438 98.2256 212.439 103.318 215.835C108.41 219.23 100.715 219.683 99.6967 225.682C98.5651 231.68 101.281 232.133 100.263 238.131C99.1309 244.13 101.847 244.583 100.715 250.581C99.5836 256.58 94.8307 255.674 93.8122 261.673C92.6806 267.671 97.3203 268.464 96.1887 274.462C95.057 280.461 86.4566 281.593 92.1148 283.969C97.773 286.233 96.415 282.045 99.8099 277.065C103.205 272.085 102.299 271.406 105.694 266.426C109.089 261.447 108.976 261.333 112.484 256.353C115.879 251.374 115.087 250.808 118.595 245.828C121.99 240.848 121.877 240.735 125.272 235.755C128.666 230.775 126.969 223.758 132.854 225.003C138.851 226.247 131.948 232.472 133.193 238.471C134.438 244.356 137.041 243.904 138.285 249.789C139.53 255.674 136.814 256.353 138.059 262.239C139.304 268.124 139.87 268.011 141.114 274.01C142.359 279.895 145.415 279.329 146.659 285.214C147.904 291.1 141.793 296.646 147.791 296.532C153.902 296.532 151.865 292.005 153.11 286.007C154.355 280.121 150.281 279.216 151.525 273.217C152.77 267.332 153.789 267.445 155.034 261.56C156.278 255.674 155.26 255.448 156.505 249.449C157.749 243.564 158.428 243.677 159.673 237.679C160.918 231.793 156.731 225.116 162.615 223.984C168.613 222.852 166.01 231.341 169.405 236.321C172.8 241.3 174.384 240.282 177.779 245.262C181.174 250.242 179.477 251.487 182.872 256.467C186.267 261.447 185.701 261.899 189.096 266.879C192.491 271.859 194.188 270.727 197.696 275.707C201.091 280.687 197.696 285.894 203.241 283.517C208.899 281.14 203.92 279.782 202.788 273.783C201.657 267.785 201.77 267.785 200.638 261.786C199.507 255.788 197.583 256.127 196.564 250.242C195.433 244.243 195.546 244.243 194.414 238.245C193.283 232.246 191.698 232.586 190.68 226.587C189.548 220.588 185.135 216.174 190.227 212.779C195.32 209.384 196.791 216.627 201.883 219.909C206.975 223.192 206.523 223.871 211.615 227.266C216.707 230.548 215.463 232.472 220.555 235.755C225.647 239.037 227.118 236.773 232.211 240.055C237.303 243.338 236.398 244.696 241.49 247.978C246.583 251.26 247.827 257.938 252.127 253.637C256.428 249.336 248.167 249.11 244.885 244.017C241.603 238.924 241.83 238.697 238.548 233.604C235.266 228.511 234.7 228.851 231.419 223.757C228.137 218.664 230.287 217.306 227.005 212.213C223.724 207.12 223.497 207.233 220.215 202.14C216.934 197.047 207.541 196.368 210.936 191.388C214.331 186.295 218.518 194.897 224.403 195.915C230.287 196.934 230.4 197.047 236.285 198.179C242.282 199.311 242.282 199.424 248.167 200.442C254.164 201.574 254.843 197.726 260.841 198.745C266.839 199.876 266.16 203.498 272.044 204.63C278.042 205.762 280.531 210.629 282.908 205.083C285.171 199.424 278.947 202.593 273.968 199.084C268.989 195.576 269.328 195.123 264.236 191.727C259.257 188.332 260.728 186.068 255.749 182.673C250.77 179.278 250.656 179.391 245.677 175.995C240.698 172.6 239.227 174.637 234.248 171.242C229.269 167.846 222.026 169.997 223.158 164.111C224.403 158.113 229.834 161.508 235.832 160.15C241.716 158.905 241.943 159.584 247.827 158.226C253.712 156.981 253.372 155.17 259.37 153.925C265.254 152.68 266.273 156.981 272.157 155.623C278.042 154.378 278.381 155.51 284.266 154.152C290.15 152.907 293.998 154.944 293.998 148.945C293.998 142.834 289.811 146.795 283.926 145.55L284.153 146.003ZM202.449 160.263C201.77 163.885 201.657 167.733 200.299 171.129C198.941 174.524 196.791 177.693 194.754 180.749C192.717 183.805 190.34 186.748 187.851 189.351C185.248 191.954 181.74 193.425 178.685 195.462C175.629 197.5 172.687 199.537 169.292 201.008C166.01 202.366 162.502 203.725 158.881 204.404C155.373 205.083 151.752 204.517 148.017 204.517C144.283 204.517 140.435 205.988 136.927 205.309C133.306 204.63 129.911 202.593 126.63 201.235C123.235 199.876 119.727 198.405 116.784 196.368C113.729 194.331 111.353 191.501 108.75 188.898C106.147 186.295 103.318 183.918 101.281 180.862C99.2441 177.806 97.7729 174.411 96.415 171.015C95.057 167.733 94.1517 164.111 93.4728 160.49C92.7938 156.981 92.4543 153.359 92.4543 149.624C92.4543 145.889 93.0201 142.268 93.6991 138.759C94.3781 135.137 94.6044 131.289 95.9623 128.007C97.3203 124.612 100.036 121.782 101.96 118.839C103.997 115.783 106.6 113.294 109.089 110.69C111.692 108.087 114.068 105.371 117.124 103.334C120.179 101.296 123.008 98.8064 126.403 97.3351C129.685 95.9769 133.759 96.5428 137.38 95.8637C140.888 95.1847 144.283 93.3738 148.017 93.3738C151.752 93.3738 155.147 95.0715 158.768 95.8637C162.389 96.5428 166.35 96.2033 169.632 97.5614C173.026 98.9196 176.082 101.07 179.137 103.107C182.193 105.145 185.248 107.295 187.738 109.898C190.34 112.501 191.812 116.01 193.848 119.066C195.885 122.122 197.357 125.291 198.828 128.686C200.186 131.968 201.204 135.364 201.883 138.985C202.562 142.494 204.033 146.003 204.033 149.738C204.033 153.473 203.241 157.094 202.562 160.603L202.449 160.263Z" fill="#1A1A1A"/>
</svg>
